solid Default
  facet normal -1.000000e+00 -0.000000e+00 -0.000000e+00
    outer loop
      vertex -1.075000e+01 -1.005000e+01 0.000000e+00
      vertex -1.075000e+01 -1.005000e+01 5.000000e+00
      vertex -1.075000e+01 1.005000e+01 0.000000e+00
    endloop
  endfacet
  facet normal -1.000000e+00 0.000000e+00 0.000000e+00
    outer loop
      vertex -1.075000e+01 1.005000e+01 0.000000e+00
      vertex -1.075000e+01 -1.005000e+01 5.000000e+00
      vertex -1.075000e+01 1.005000e+01 5.000000e+00
    endloop
  endfacet
  facet normal 0.000000e+00 -1.000000e+00 0.000000e+00
    outer loop
      vertex -1.075000e+01 -1.005000e+01 5.000000e+00
      vertex -1.075000e+01 -1.005000e+01 0.000000e+00
      vertex 1.075000e+01 -1.005000e+01 0.000000e+00
    endloop
  endfacet
  facet normal 0.000000e+00 -1.000000e+00 0.000000e+00
    outer loop
      vertex 1.075000e+01 -1.005000e+01 5.000000e+00
      vertex -1.075000e+01 -1.005000e+01 5.000000e+00
      vertex 1.075000e+01 -1.005000e+01 0.000000e+00
    endloop
  endfacet
  facet normal -0.000000e+00 -0.000000e+00 -1.000000e+00
    outer loop
      vertex -1.075000e+01 -1.005000e+01 0.000000e+00
      vertex -1.075000e+01 1.005000e+01 0.000000e+00
      vertex 1.075000e+01 -1.005000e+01 0.000000e+00
    endloop
  endfacet
  facet normal 0.000000e+00 0.000000e+00 -1.000000e+00
    outer loop
      vertex 1.075000e+01 -1.005000e+01 0.000000e+00
      vertex -1.075000e+01 1.005000e+01 0.000000e+00
      vertex 1.075000e+01 1.005000e+01 0.000000e+00
    endloop
  endfacet
  facet normal 0.000000e+00 1.000000e+00 0.000000e+00
    outer loop
      vertex 7.949999e+00 1.005000e+01 2.500000e+00
      vertex 1.075000e+01 1.005000e+01 0.000000e+00
      vertex -7.950000e+00 1.005000e+01 2.500000e+00
    endloop
  endfacet
  facet normal 0.000000e+00 1.000000e+00 0.000000e+00
    outer loop
      vertex -1.075000e+01 1.005000e+01 0.000000e+00
      vertex -1.075000e+01 1.005000e+01 5.000000e+00
      vertex -7.950000e+00 1.005000e+01 2.500000e+00
    endloop
  endfacet
  facet normal 0.000000e+00 1.000000e+00 0.000000e+00
    outer loop
      vertex -1.075000e+01 1.005000e+01 0.000000e+00
      vertex -7.950000e+00 1.005000e+01 2.500000e+00
      vertex 1.075000e+01 1.005000e+01 0.000000e+00
    endloop
  endfacet
  facet normal 0.000000e+00 1.000000e+00 0.000000e+00
    outer loop
      vertex 1.075000e+01 1.005000e+01 0.000000e+00
      vertex 7.949999e+00 1.005000e+01 2.500000e+00
      vertex 7.949999e+00 1.005000e+01 5.000000e+00
    endloop
  endfacet
  facet normal 0.000000e+00 1.000000e+00 0.000000e+00
    outer loop
      vertex 1.075000e+01 1.005000e+01 0.000000e+00
      vertex 7.949999e+00 1.005000e+01 5.000000e+00
      vertex 1.075000e+01 1.005000e+01 5.000000e+00
    endloop
  endfacet
  facet normal 0.000000e+00 1.000000e+00 0.000000e+00
    outer loop
      vertex -7.950000e+00 1.005000e+01 2.500000e+00
      vertex -1.075000e+01 1.005000e+01 5.000000e+00
      vertex -7.950000e+00 1.005000e+01 5.000000e+00
    endloop
  endfacet
  facet normal 0.000000e+00 0.000000e+00 1.000000e+00
    outer loop
      vertex -9.950000e+00 -9.250000e+00 5.000000e+00
      vertex -1.075000e+01 -1.005000e+01 5.000000e+00
      vertex 1.075000e+01 -1.005000e+01 5.000000e+00
    endloop
  endfacet
  facet normal 0.000000e+00 0.000000e+00 1.000000e+00
    outer loop
      vertex 9.949999e+00 9.250000e+00 5.000000e+00
      vertex 9.949999e+00 -9.250000e+00 5.000000e+00
      vertex 1.075000e+01 -1.005000e+01 5.000000e+00
    endloop
  endfacet
  facet normal 0.000000e+00 0.000000e+00 1.000000e+00
    outer loop
      vertex 1.075000e+01 1.005000e+01 5.000000e+00
      vertex 9.949999e+00 9.250000e+00 5.000000e+00
      vertex 1.075000e+01 -1.005000e+01 5.000000e+00
    endloop
  endfacet
  facet normal 0.000000e+00 0.000000e+00 1.000000e+00
    outer loop
      vertex 1.075000e+01 1.005000e+01 5.000000e+00
      vertex 7.949999e+00 1.005000e+01 5.000000e+00
      vertex 9.949999e+00 9.250000e+00 5.000000e+00
    endloop
  endfacet
  facet normal 0.000000e+00 0.000000e+00 1.000000e+00
    outer loop
      vertex -7.950000e+00 9.250000e+00 5.000000e+00
      vertex -7.950000e+00 1.005000e+01 5.000000e+00
      vertex -1.075000e+01 1.005000e+01 5.000000e+00
    endloop
  endfacet
  facet normal 0.000000e+00 0.000000e+00 1.000000e+00
    outer loop
      vertex -1.075000e+01 1.005000e+01 5.000000e+00
      vertex -1.075000e+01 -1.005000e+01 5.000000e+00
      vertex -9.950000e+00 -9.250000e+00 5.000000e+00
    endloop
  endfacet
  facet normal 0.000000e+00 0.000000e+00 1.000000e+00
    outer loop
      vertex -9.950000e+00 9.250000e+00 5.000000e+00
      vertex -7.950000e+00 9.250000e+00 5.000000e+00
      vertex -1.075000e+01 1.005000e+01 5.000000e+00
    endloop
  endfacet
  facet normal 0.000000e+00 0.000000e+00 1.000000e+00
    outer loop
      vertex -1.075000e+01 1.005000e+01 5.000000e+00
      vertex -9.950000e+00 -9.250000e+00 5.000000e+00
      vertex -9.950000e+00 9.250000e+00 5.000000e+00
    endloop
  endfacet
  facet normal 0.000000e+00 0.000000e+00 1.000000e+00
    outer loop
      vertex 7.949999e+00 9.250000e+00 5.000000e+00
      vertex 9.949999e+00 9.250000e+00 5.000000e+00
      vertex 7.949999e+00 1.005000e+01 5.000000e+00
    endloop
  endfacet
  facet normal 0.000000e+00 0.000000e+00 1.000000e+00
    outer loop
      vertex 9.949999e+00 -9.250000e+00 5.000000e+00
      vertex -9.950000e+00 -9.250000e+00 5.000000e+00
      vertex 1.075000e+01 -1.005000e+01 5.000000e+00
    endloop
  endfacet
  facet normal 1.000000e+00 0.000000e+00 0.000000e+00
    outer loop
      vertex 1.075000e+01 -1.005000e+01 5.000000e+00
      vertex 1.075000e+01 -1.005000e+01 0.000000e+00
      vertex 1.075000e+01 1.005000e+01 0.000000e+00
    endloop
  endfacet
  facet normal 1.000000e+00 0.000000e+00 0.000000e+00
    outer loop
      vertex 1.075000e+01 1.005000e+01 5.000000e+00
      vertex 1.075000e+01 -1.005000e+01 5.000000e+00
      vertex 1.075000e+01 1.005000e+01 0.000000e+00
    endloop
  endfacet
  facet normal -1.000000e+00 0.000000e+00 0.000000e+00
    outer loop
      vertex 7.949999e+00 1.005000e+01 5.000000e+00
      vertex 7.949999e+00 1.005000e+01 2.500000e+00
      vertex 7.949999e+00 9.250000e+00 5.000000e+00
    endloop
  endfacet
  facet normal -1.000000e+00 0.000000e+00 0.000000e+00
    outer loop
      vertex 7.949999e+00 9.250000e+00 5.000000e+00
      vertex 7.949999e+00 1.005000e+01 2.500000e+00
      vertex 7.949999e+00 9.250000e+00 2.500000e+00
    endloop
  endfacet
  facet normal 0.000000e+00 0.000000e+00 1.000000e+00
    outer loop
      vertex -4.950000e+00 -4.250000e+00 2.500000e+00
      vertex 9.349999e+00 -4.250000e+00 2.500000e+00
      vertex -4.950000e+00 7.750000e+00 2.500000e+00
    endloop
  endfacet
  facet normal 0.000000e+00 0.000000e+00 1.000000e+00
    outer loop
      vertex 9.949999e+00 -9.250000e+00 2.500000e+00
      vertex 9.949999e+00 9.250000e+00 2.500000e+00
      vertex 7.949999e+00 9.250000e+00 2.500000e+00
    endloop
  endfacet
  facet normal 0.000000e+00 0.000000e+00 1.000000e+00
    outer loop
      vertex 9.349999e+00 -4.250000e+00 2.500000e+00
      vertex 9.949999e+00 -9.250000e+00 2.500000e+00
      vertex 7.949999e+00 9.250000e+00 2.500000e+00
    endloop
  endfacet
  facet normal 0.000000e+00 0.000000e+00 1.000000e+00
    outer loop
      vertex 7.949999e+00 1.005000e+01 2.500000e+00
      vertex -7.950000e+00 1.005000e+01 2.500000e+00
      vertex 7.949999e+00 9.250000e+00 2.500000e+00
    endloop
  endfacet
  facet normal 0.000000e+00 0.000000e+00 1.000000e+00
    outer loop
      vertex -8.950000e+00 -8.250000e+00 2.500000e+00
      vertex -9.950000e+00 -9.250000e+00 2.500000e+00
      vertex 9.949999e+00 -9.250000e+00 2.500000e+00
    endloop
  endfacet
  facet normal 0.000000e+00 0.000000e+00 1.000000e+00
    outer loop
      vertex -9.950000e+00 9.250000e+00 2.500000e+00
      vertex -9.950000e+00 -9.250000e+00 2.500000e+00
      vertex -8.950000e+00 7.750000e+00 2.500000e+00
    endloop
  endfacet
  facet normal 0.000000e+00 0.000000e+00 1.000000e+00
    outer loop
      vertex -7.950000e+00 1.005000e+01 2.500000e+00
      vertex -4.950000e+00 7.750000e+00 2.500000e+00
      vertex 7.949999e+00 9.250000e+00 2.500000e+00
    endloop
  endfacet
  facet normal 0.000000e+00 0.000000e+00 1.000000e+00
    outer loop
      vertex -8.950000e+00 7.750000e+00 2.500000e+00
      vertex -9.950000e+00 -9.250000e+00 2.500000e+00
      vertex -8.950000e+00 -8.250000e+00 2.500000e+00
    endloop
  endfacet
  facet normal 0.000000e+00 0.000000e+00 1.000000e+00
    outer loop
      vertex -4.950000e+00 7.750000e+00 2.500000e+00
      vertex 9.349999e+00 -4.250000e+00 2.500000e+00
      vertex 7.949999e+00 9.250000e+00 2.500000e+00
    endloop
  endfacet
  facet normal 0.000000e+00 0.000000e+00 1.000000e+00
    outer loop
      vertex 9.349999e+00 -8.250000e+00 2.500000e+00
      vertex 9.949999e+00 -9.250000e+00 2.500000e+00
      vertex 9.349999e+00 -4.250000e+00 2.500000e+00
    endloop
  endfacet
  facet normal 0.000000e+00 0.000000e+00 1.000000e+00
    outer loop
      vertex 9.349999e+00 -8.250000e+00 2.500000e+00
      vertex -8.950000e+00 -8.250000e+00 2.500000e+00
      vertex 9.949999e+00 -9.250000e+00 2.500000e+00
    endloop
  endfacet
  facet normal 0.000000e+00 0.000000e+00 1.000000e+00
    outer loop
      vertex -8.950000e+00 7.750000e+00 2.500000e+00
      vertex -7.950000e+00 9.250000e+00 2.500000e+00
      vertex -9.950000e+00 9.250000e+00 2.500000e+00
    endloop
  endfacet
  facet normal 0.000000e+00 0.000000e+00 1.000000e+00
    outer loop
      vertex -7.950000e+00 9.250000e+00 2.500000e+00
      vertex -4.950000e+00 7.750000e+00 2.500000e+00
      vertex -7.950000e+00 1.005000e+01 2.500000e+00
    endloop
  endfacet
  facet normal 0.000000e+00 0.000000e+00 1.000000e+00
    outer loop
      vertex -8.950000e+00 7.750000e+00 2.500000e+00
      vertex -4.950000e+00 7.750000e+00 2.500000e+00
      vertex -7.950000e+00 9.250000e+00 2.500000e+00
    endloop
  endfacet
  facet normal 1.000000e+00 0.000000e+00 0.000000e+00
    outer loop
      vertex -7.950000e+00 1.005000e+01 2.500000e+00
      vertex -7.950000e+00 1.005000e+01 5.000000e+00
      vertex -7.950000e+00 9.250000e+00 5.000000e+00
    endloop
  endfacet
  facet normal 1.000000e+00 0.000000e+00 0.000000e+00
    outer loop
      vertex -7.950000e+00 9.250000e+00 2.500000e+00
      vertex -7.950000e+00 1.005000e+01 2.500000e+00
      vertex -7.950000e+00 9.250000e+00 5.000000e+00
    endloop
  endfacet
  facet normal 0.000000e+00 -1.000000e+00 0.000000e+00
    outer loop
      vertex -7.950000e+00 9.250000e+00 2.500000e+00
      vertex -7.950000e+00 9.250000e+00 5.000000e+00
      vertex -9.950000e+00 9.250000e+00 5.000000e+00
    endloop
  endfacet
  facet normal -0.000000e+00 -1.000000e+00 -0.000000e+00
    outer loop
      vertex -9.950000e+00 9.250000e+00 2.500000e+00
      vertex -7.950000e+00 9.250000e+00 2.500000e+00
      vertex -9.950000e+00 9.250000e+00 5.000000e+00
    endloop
  endfacet
  facet normal 1.000000e+00 0.000000e+00 0.000000e+00
    outer loop
      vertex -9.950000e+00 9.250000e+00 2.500000e+00
      vertex -9.950000e+00 9.250000e+00 5.000000e+00
      vertex -9.950000e+00 -9.250000e+00 5.000000e+00
    endloop
  endfacet
  facet normal 1.000000e+00 0.000000e+00 0.000000e+00
    outer loop
      vertex -9.950000e+00 -9.250000e+00 2.500000e+00
      vertex -9.950000e+00 9.250000e+00 2.500000e+00
      vertex -9.950000e+00 -9.250000e+00 5.000000e+00
    endloop
  endfacet
  facet normal 0.000000e+00 1.000000e+00 0.000000e+00
    outer loop
      vertex 9.949999e+00 -9.250000e+00 5.000000e+00
      vertex 9.949999e+00 -9.250000e+00 2.500000e+00
      vertex -9.950000e+00 -9.250000e+00 5.000000e+00
    endloop
  endfacet
  facet normal 0.000000e+00 1.000000e+00 0.000000e+00
    outer loop
      vertex -9.950000e+00 -9.250000e+00 5.000000e+00
      vertex 9.949999e+00 -9.250000e+00 2.500000e+00
      vertex -9.950000e+00 -9.250000e+00 2.500000e+00
    endloop
  endfacet
  facet normal -1.000000e+00 0.000000e+00 0.000000e+00
    outer loop
      vertex 9.949999e+00 9.250000e+00 5.000000e+00
      vertex 9.949999e+00 9.250000e+00 2.500000e+00
      vertex 9.949999e+00 -9.250000e+00 5.000000e+00
    endloop
  endfacet
  facet normal -1.000000e+00 0.000000e+00 0.000000e+00
    outer loop
      vertex 9.949999e+00 -9.250000e+00 5.000000e+00
      vertex 9.949999e+00 9.250000e+00 2.500000e+00
      vertex 9.949999e+00 -9.250000e+00 2.500000e+00
    endloop
  endfacet
  facet normal 0.000000e+00 -1.000000e+00 0.000000e+00
    outer loop
      vertex 9.949999e+00 9.250000e+00 2.500000e+00
      vertex 9.949999e+00 9.250000e+00 5.000000e+00
      vertex 7.949999e+00 9.250000e+00 5.000000e+00
    endloop
  endfacet
  facet normal -0.000000e+00 -1.000000e+00 -0.000000e+00
    outer loop
      vertex 7.949999e+00 9.250000e+00 2.500000e+00
      vertex 9.949999e+00 9.250000e+00 2.500000e+00
      vertex 7.949999e+00 9.250000e+00 5.000000e+00
    endloop
  endfacet
  facet normal 1.000000e+00 0.000000e+00 0.000000e+00
    outer loop
      vertex -8.950000e+00 7.750000e+00 1.000000e+00
      vertex -8.950000e+00 7.750000e+00 2.500000e+00
      vertex -8.950000e+00 -8.250000e+00 2.500000e+00
    endloop
  endfacet
  facet normal 1.000000e+00 0.000000e+00 0.000000e+00
    outer loop
      vertex -8.950000e+00 -8.250000e+00 1.000000e+00
      vertex -8.950000e+00 7.750000e+00 1.000000e+00
      vertex -8.950000e+00 -8.250000e+00 2.500000e+00
    endloop
  endfacet
  facet normal 0.000000e+00 -1.000000e+00 0.000000e+00
    outer loop
      vertex -4.950000e+00 7.750000e+00 1.000000e+00
      vertex -4.950000e+00 7.750000e+00 2.500000e+00
      vertex -8.950000e+00 7.750000e+00 2.500000e+00
    endloop
  endfacet
  facet normal -0.000000e+00 -1.000000e+00 -0.000000e+00
    outer loop
      vertex -8.950000e+00 7.750000e+00 1.000000e+00
      vertex -4.950000e+00 7.750000e+00 1.000000e+00
      vertex -8.950000e+00 7.750000e+00 2.500000e+00
    endloop
  endfacet
  facet normal 0.000000e+00 1.000000e+00 0.000000e+00
    outer loop
      vertex 9.349999e+00 -8.250000e+00 2.500000e+00
      vertex 9.349999e+00 -8.250000e+00 1.000000e+00
      vertex -8.950000e+00 -8.250000e+00 2.500000e+00
    endloop
  endfacet
  facet normal 0.000000e+00 1.000000e+00 0.000000e+00
    outer loop
      vertex -8.950000e+00 -8.250000e+00 2.500000e+00
      vertex 9.349999e+00 -8.250000e+00 1.000000e+00
      vertex -8.950000e+00 -8.250000e+00 1.000000e+00
    endloop
  endfacet
  facet normal -1.000000e+00 0.000000e+00 0.000000e+00
    outer loop
      vertex 9.349999e+00 -4.250000e+00 2.500000e+00
      vertex 9.349999e+00 -4.250000e+00 1.000000e+00
      vertex 9.349999e+00 -8.250000e+00 2.500000e+00
    endloop
  endfacet
  facet normal -1.000000e+00 0.000000e+00 0.000000e+00
    outer loop
      vertex 9.349999e+00 -8.250000e+00 2.500000e+00
      vertex 9.349999e+00 -4.250000e+00 1.000000e+00
      vertex 9.349999e+00 -8.250000e+00 1.000000e+00
    endloop
  endfacet
  facet normal 0.000000e+00 -1.000000e+00 0.000000e+00
    outer loop
      vertex 9.349999e+00 -4.250000e+00 1.000000e+00
      vertex 9.349999e+00 -4.250000e+00 2.500000e+00
      vertex -4.950000e+00 -4.250000e+00 2.500000e+00
    endloop
  endfacet
  facet normal -0.000000e+00 -1.000000e+00 -0.000000e+00
    outer loop
      vertex -4.950000e+00 -4.250000e+00 1.000000e+00
      vertex 9.349999e+00 -4.250000e+00 1.000000e+00
      vertex -4.950000e+00 -4.250000e+00 2.500000e+00
    endloop
  endfacet
  facet normal -1.000000e+00 0.000000e+00 0.000000e+00
    outer loop
      vertex -4.950000e+00 7.750000e+00 2.500000e+00
      vertex -4.950000e+00 7.750000e+00 1.000000e+00
      vertex -4.950000e+00 -4.250000e+00 2.500000e+00
    endloop
  endfacet
  facet normal -1.000000e+00 0.000000e+00 0.000000e+00
    outer loop
      vertex -4.950000e+00 -4.250000e+00 2.500000e+00
      vertex -4.950000e+00 7.750000e+00 1.000000e+00
      vertex -4.950000e+00 -4.250000e+00 1.000000e+00
    endloop
  endfacet
  facet normal 0.000000e+00 0.000000e+00 1.000000e+00
    outer loop
      vertex 9.349999e+00 -8.250000e+00 1.000000e+00
      vertex 9.349999e+00 -4.250000e+00 1.000000e+00
      vertex -4.950000e+00 -4.250000e+00 1.000000e+00
    endloop
  endfacet
  facet normal 0.000000e+00 0.000000e+00 1.000000e+00
    outer loop
      vertex -8.950000e+00 -8.250000e+00 1.000000e+00
      vertex 9.349999e+00 -8.250000e+00 1.000000e+00
      vertex -4.950000e+00 -4.250000e+00 1.000000e+00
    endloop
  endfacet
  facet normal 0.000000e+00 0.000000e+00 1.000000e+00
    outer loop
      vertex -4.950000e+00 7.750000e+00 1.000000e+00
      vertex -8.950000e+00 7.750000e+00 1.000000e+00
      vertex -4.950000e+00 -4.250000e+00 1.000000e+00
    endloop
  endfacet
  facet normal 0.000000e+00 0.000000e+00 1.000000e+00
    outer loop
      vertex -8.950000e+00 7.750000e+00 1.000000e+00
      vertex -8.950000e+00 -8.250000e+00 1.000000e+00
      vertex -4.950000e+00 -4.250000e+00 1.000000e+00
    endloop
  endfacet
endsolid Default
